<?xml version="1.0" encoding="UTF-8"?><svg id="Layer_1" xmlns="http://www.w3.org/2000/svg" viewBox="0 0 432 168.47"><defs><style>.cls-1{fill:#e56a54 !important;}.cls-2{fill:#fff !important;}.cls-3{fill:#384967 !important;}</style></defs><rect class="cls-1" x="35.09" y="113.59" width="386.36" height="40.61" rx="4.67" ry="4.67"/><path class="cls-3" d="M111.27,54.16v11.19c0,.33,.3,.59,.68,.59h23.79c.37,0,.68,.26,.68,.59v11.51c0,.33-.3,.59-.68,.59h-23.79c-.37,0-.68,.26-.68,.59v11.9c0,.33,.3,.59,.68,.59h27.95c.37,0,.68,.26,.68,.59v11.47c0,.33-.3,.59-.68,.59h-42.61c-.37,0-.68-.26-.68-.59V41.63c0-.33,.3-.59,.68-.59h42.61c.37,0,.68,.26,.68,.59v11.35c0,.33-.3,.59-.68,.59h-27.95c-.37,0-.68,.26-.68,.59Z"/><path class="cls-3" d="M211.84,41.63v62.13c0,.33-.3,.59-.68,.59h-13.25c-.37,0-.68-.26-.68-.59v-24.19c0-.33-.3-.59-.68-.59h-24.83c-.37,0-.68,.26-.68,.59v24.19c0,.33-.3,.59-.68,.59h-13.25c-.37,0-.68-.26-.68-.59V41.63c0-.33,.3-.59,.68-.59h13.25c.37,0,.68,.26,.68,.59v24.16c0,.33,.3,.59,.68,.59h24.83c.37,0,.68-.26,.68-.59v-24.16c0-.33,.3-.59,.68-.59h13.25c.37,0,.68,.26,.68,.59Z"/><path class="cls-3" d="M267.06,103.49l-21.76-28.07c-.37-.48-1.24-.25-1.24,.33v27.41c0,.33-.3,.59-.68,.59h-13.3c-.37,0-.68-.26-.68-.59l-.04-62.13c0-.33,.3-.59,.68-.59h23.11c13.61,0,24.79,9.11,24.79,20.5,0,7.84-5.26,14.74-12.66,17.37-.41,.15-.57,.58-.31,.89l19.44,23.63c.32,.39,0,.93-.55,.93h-16.23c-.23,0-.44-.1-.56-.26Zm-23.05-35.12c0,.32,.3,.59,.68,.59l8.73,.04c4.98,.04,9.41-3.46,9.41-7.97s-4.48-7.97-9.41-7.97h-8.73c-.37,0-.68,.26-.68,.59v14.73Z"/><path class="cls-3" d="M314.68,53.55v11.19c0,.33,.3,.59,.68,.59h23.79c.37,0,.68,.26,.68,.59v11.51c0,.33-.3,.59-.68,.59h-23.79c-.37,0-.68,.26-.68,.59v11.9c0,.33,.3,.59,.68,.59h27.95c.37,0,.68,.26,.68,.59v11.47c0,.33-.3,.59-.68,.59h-42.61c-.37,0-.68-.26-.68-.59V41.02c0-.33,.3-.59,.68-.59h42.61c.37,0,.68,.26,.68,.59v11.35c0,.33-.3,.59-.68,.59h-27.95c-.37,0-.68,.26-.68,.59Z"/><path class="cls-3" d="M420.58,39.67c.37,0,.68,.26,.68,.59V104.32h-.68l-42.13-35.59c-.43-.36-1.15-.1-1.15,.42v33.48c0,.33-.3,.59-.68,.59h-13.3c-.37,0-.68-.26-.68-.59V38.65h.72l42.04,35.51c.43,.36,1.15,.1,1.15-.42V40.26c0-.33,.3-.59,.68-.59h13.34Z"/><g><path class="cls-3" d="M60.53,72.78c-.37-.52-.38-1.19-.03-1.72l20.11-30.14-.06-.11h-10.18c-.23,0-.44,.1-.57,.27l-18.95,25.52c-.37,.49-1.24,.27-1.24-.32v-11.05c0-.3-.25-.55-.55-.55h-13.44c-.3,0-.55,.25-.55,.55v48.51c0,.33,.3,.59,.67,.59h13.19c.37,0,.68-.26,.68-.59v-25.34c0-.58,.85-.81,1.23-.34l20.62,26.01c.13,.16,.33,.25,.55,.25h10.78s.03-.05,.06-.1c-2.05-2.88-17.4-24.5-22.34-31.44Z"/><rect class="cls-1" x="35.06" y="40.78" width="14.63" height="12.71" rx=".68" ry=".68"/><rect class="cls-1" x="40.3" y="28.07" width="9.82" height="9.43" rx=".7" ry=".7"/><rect class="cls-1" x="17.36" y="38" width="12.16" height="11.68" rx=".7" ry=".7"/><rect class="cls-1" x="25" y="25.65" width="10.59" height="10.17" rx=".7" ry=".7"/><rect class="cls-1" x="30.1" y="16.49" width="6.13" height="5.89" rx=".7" ry=".7"/><rect class="cls-1" x="13.73" y="26.09" width="6.6" height="6.34" rx=".7" ry=".7"/><rect class="cls-1" x="18.2" y="16.55" width="5.7" height="5.48" rx=".7" ry=".7"/><rect class="cls-1" x="10.55" y="14.27" width="4.07" height="3.91" rx=".7" ry=".7"/><path class="cls-1" d="M89.39,103.36l-22.57-31.15c-.14-.2-.15-.46,0-.66l20.29-29.82c.27-.39-.03-.91-.51-.91h-4c.49,0,.78,.52,.51,.91l-20.29,29.82c-.14,.2-.13,.46,0,.66l22.57,31.15c.28,.39,0,.93-.5,.93h4c.5,0,.79-.54,.5-.93Z"/><path class="cls-1" d="M87.89,103.35l-22.57-31.15c-.14-.2-.15-.46-.01-.66l20.29-29.82c.27-.39-.03-.91-.51-.91h-2.9c-.17,.3-.36,.59-.57,.87,0,.01-.01,.03-.02,.04l-20.29,29.82c-.14,.2-.13,.46,0,.66l22.57,31.15s0,.02,.01,.03c0,.01,.02,.02,.03,.04,.18,.29,.39,.57,.58,.86h2.88c.5,0,.79-.54,.5-.93Z"/></g><g><g><g><path class="cls-2" d="M44.14,121.72c0-.45,.15-.83,.46-1.14,.31-.31,.69-.46,1.14-.46h8.44c1.38,0,2.69,.26,3.92,.78,1.24,.52,2.31,1.23,3.21,2.13,.9,.9,1.62,1.95,2.15,3.14,.53,1.2,.8,2.48,.8,3.86v8.02c0,1.38-.27,2.67-.8,3.86-.53,1.2-1.25,2.24-2.15,3.14-.9,.9-1.96,1.61-3.19,2.13-1.22,.52-2.53,.78-3.9,.78h-8.48c-.42,0-.79-.15-1.12-.46-.32-.31-.49-.69-.49-1.14v-24.64Zm3.21,1.6v21.44h6.88c.96,0,1.85-.18,2.68-.53,.83-.35,1.55-.83,2.17-1.43,.62-.61,1.1-1.32,1.46-2.13,.35-.82,.53-1.69,.53-2.62v-8.02c0-.93-.18-1.8-.53-2.62-.35-.82-.84-1.53-1.46-2.13-.62-.61-1.35-1.08-2.19-1.44-.84-.35-1.74-.53-2.7-.53h-6.84Z"/><path class="cls-2" d="M54.22,148.88h-8.48c-.65,0-1.26-.25-1.75-.72-.5-.48-.77-1.1-.77-1.8v-24.64c0-.69,.25-1.3,.73-1.78s1.09-.73,1.78-.73h8.44c1.49,0,2.93,.29,4.28,.85,1.34,.56,2.52,1.35,3.5,2.33,.98,.98,1.76,2.13,2.34,3.41,.58,1.31,.88,2.73,.88,4.23v8.02c0,1.5-.3,2.92-.88,4.23-.58,1.29-1.36,2.44-2.34,3.42-.98,.98-2.15,1.76-3.47,2.33-1.33,.57-2.76,.85-4.26,.85Zm-8.48-27.85c-.21,0-.36,.06-.5,.2-.14,.14-.2,.29-.2,.5v24.64c0,.2,.06,.35,.2,.48,.15,.15,.31,.21,.49,.21h8.48c1.25,0,2.44-.24,3.55-.71,1.11-.47,2.08-1.12,2.9-1.94,.82-.82,1.48-1.78,1.97-2.87,.48-1.07,.72-2.25,.72-3.49v-8.02c0-1.24-.24-2.42-.72-3.49-.49-1.09-1.15-2.05-1.97-2.87-.81-.81-1.79-1.46-2.92-1.94-1.12-.47-2.32-.71-3.57-.71h-8.44Zm8.48,24.64h-7.79v-23.25h7.74c1.07,0,2.1,.2,3.05,.6,.95,.4,1.78,.94,2.48,1.62,.7,.68,1.26,1.5,1.65,2.42,.4,.93,.6,1.93,.6,2.98v8.02c0,1.05-.2,2.05-.6,2.98-.4,.92-.95,1.73-1.65,2.42-.7,.68-1.52,1.23-2.45,1.62-.94,.4-1.96,.6-3.03,.6Zm-5.97-1.82h5.97c.83,0,1.61-.15,2.33-.45,.72-.31,1.36-.73,1.89-1.25,.53-.52,.95-1.14,1.26-1.84,.3-.7,.45-1.46,.45-2.26v-8.02c0-.8-.15-1.56-.45-2.26-.3-.7-.73-1.32-1.26-1.84-.53-.52-1.17-.94-1.91-1.25-.73-.3-1.52-.46-2.35-.46h-5.93v19.62Z"/></g><g><path class="cls-2" d="M54.22,148.42h-8.48c-.54,0-1.02-.2-1.43-.59-.41-.4-.63-.89-.63-1.47v-24.64c0-.57,.2-1.06,.6-1.46,.4-.4,.89-.6,1.46-.6h8.44c1.43,0,2.81,.27,4.1,.82,1.29,.54,2.41,1.29,3.35,2.23,.94,.94,1.69,2.04,2.25,3.28,.56,1.25,.84,2.61,.84,4.05v8.02c0,1.44-.28,2.8-.84,4.05-.55,1.24-1.31,2.34-2.25,3.28-.94,.94-2.06,1.69-3.33,2.23-1.27,.54-2.65,.82-4.08,.82Zm-8.48-27.85c-.33,0-.6,.11-.82,.33-.22,.22-.33,.49-.33,.82v24.64c0,.33,.11,.59,.34,.81,.24,.23,.5,.34,.8,.34h8.48c1.31,0,2.57-.25,3.73-.74,1.16-.5,2.19-1.18,3.04-2.04,.86-.86,1.55-1.87,2.06-3.01,.51-1.13,.76-2.37,.76-3.68v-8.02c0-1.31-.26-2.54-.76-3.68-.51-1.14-1.2-2.15-2.06-3.01-.86-.85-1.89-1.54-3.06-2.03-1.18-.49-2.44-.75-3.75-.75h-8.44Zm8.48,24.64h-7.33v-22.34h7.29c1.01,0,1.98,.19,2.88,.56,.89,.37,1.68,.89,2.34,1.53,.66,.65,1.18,1.41,1.55,2.28,.37,.87,.56,1.81,.56,2.8v8.02c0,.98-.19,1.93-.56,2.8-.37,.87-.9,1.63-1.55,2.28-.66,.64-1.44,1.16-2.31,1.53-.88,.37-1.84,.56-2.86,.56Zm-6.42-.91h6.42c.89,0,1.73-.17,2.5-.49,.77-.33,1.46-.78,2.03-1.34,.57-.56,1.03-1.23,1.36-1.99,.33-.76,.49-1.58,.49-2.44v-8.02c0-.86-.16-1.68-.49-2.44-.33-.76-.78-1.42-1.36-1.99-.58-.56-1.27-1.01-2.05-1.34s-1.64-.49-2.53-.49h-6.38v20.53Z"/><path class="cls-2" d="M54.22,149.33h-8.48c-.77,0-1.48-.29-2.06-.84-.59-.56-.91-1.3-.91-2.12v-24.64c0-.81,.3-1.54,.86-2.1,.56-.56,1.29-.86,2.1-.86h8.44c1.55,0,3.05,.3,4.45,.89,1.4,.59,2.62,1.4,3.64,2.42,1.02,1.02,1.83,2.21,2.43,3.55,.61,1.37,.92,2.85,.92,4.42v8.02c0,1.56-.31,3.05-.92,4.42-.6,1.34-1.42,2.54-2.43,3.55-1.02,1.02-2.24,1.83-3.61,2.42-1.39,.59-2.88,.89-4.44,.89Zm-8.48-27.85c-.1,0-.13,.02-.17,.06-.05,.05-.07,.08-.07,.18v24.64c0,.08,.01,.1,.06,.15,.09,.09,.14,.09,.18,.09h8.48c1.19,0,2.32-.23,3.37-.67,1.05-.45,1.98-1.07,2.76-1.84,.78-.78,1.41-1.7,1.87-2.74,.45-1.01,.68-2.13,.68-3.31v-8.02c0-1.18-.23-2.29-.68-3.31-.46-1.04-1.09-1.96-1.87-2.74-.77-.77-1.7-1.39-2.77-1.84-1.07-.45-2.21-.67-3.4-.67h-8.44Zm8.48,24.64h-8.24v-24.16h8.2c1.13,0,2.22,.21,3.22,.63,1,.42,1.88,1,2.62,1.72,.75,.73,1.34,1.6,1.75,2.57,.42,.98,.64,2.05,.64,3.16v8.02c0,1.11-.21,2.17-.64,3.15-.42,.97-1.01,1.84-1.75,2.57-.74,.72-1.61,1.3-2.6,1.72-1,.42-2.08,.64-3.21,.64Zm-5.52-2.72h5.52c.77,0,1.49-.14,2.15-.42,.67-.28,1.26-.67,1.75-1.16,.49-.48,.88-1.05,1.16-1.7,.28-.64,.42-1.34,.42-2.08v-8.02c0-.74-.14-1.44-.42-2.08-.28-.65-.67-1.22-1.16-1.7-.49-.48-1.09-.87-1.76-1.15-.68-.28-1.41-.42-2.18-.42h-5.47v18.71Z"/></g></g><g><g><path class="cls-2" d="M77.9,121.72c0-.45,.15-.83,.46-1.14,.31-.31,.69-.46,1.14-.46h16.92c.45,0,.83,.16,1.14,.46s.46,.69,.46,1.14c0,.42-.15,.8-.46,1.12-.31,.32-.69,.49-1.14,.49h-15.32v9.54h8.99c.45,0,.83,.15,1.14,.46,.31,.31,.46,.69,.46,1.14,0,.42-.15,.79-.46,1.12-.31,.32-.69,.49-1.14,.49h-8.99v8.69h15.32c.45,0,.83,.16,1.14,.46,.31,.31,.46,.69,.46,1.14,0,.42-.15,.8-.46,1.12-.31,.32-.69,.49-1.14,.49h-16.92c-.42,0-.79-.15-1.12-.46-.32-.31-.49-.69-.49-1.14v-24.64Z"/><path class="cls-2" d="M96.42,148.88h-16.92c-.65,0-1.26-.25-1.75-.72-.5-.48-.77-1.1-.77-1.8v-24.64c0-.69,.25-1.3,.73-1.78s1.09-.73,1.78-.73h16.92c.69,0,1.3,.25,1.78,.73,.48,.48,.73,1.1,.73,1.78s-.25,1.26-.72,1.75c-.48,.5-1.1,.77-1.79,.77h-14.41v7.72h8.08c.69,0,1.3,.25,1.78,.73s.73,1.09,.73,1.78c0,.65-.25,1.26-.72,1.75-.48,.5-1.1,.77-1.79,.77h-8.08v6.88h14.41c.69,0,1.3,.25,1.78,.73,.48,.48,.73,1.1,.73,1.78s-.25,1.26-.72,1.75c-.48,.5-1.1,.77-1.79,.77Zm-16.92-27.85c-.21,0-.36,.06-.5,.2-.14,.14-.2,.29-.2,.5v24.64c0,.2,.06,.35,.2,.48,.15,.15,.31,.21,.49,.21h16.92c.2,0,.35-.06,.48-.2,.15-.16,.21-.3,.21-.49,0-.21-.06-.36-.2-.5-.14-.14-.29-.2-.5-.2h-16.23v-10.51h9.9c.2,0,.35-.06,.48-.2,.15-.15,.21-.3,.21-.49,0-.21-.06-.36-.2-.5-.14-.14-.29-.2-.5-.2h-9.9v-11.35h16.23c.2,0,.35-.06,.48-.2,.15-.15,.21-.3,.21-.49,0-.21-.06-.36-.2-.5-.14-.14-.29-.2-.5-.2h-16.92Z"/></g><g><path class="cls-2" d="M96.42,148.42h-16.92c-.54,0-1.02-.2-1.43-.59-.41-.4-.62-.89-.62-1.47v-24.64c0-.57,.2-1.06,.6-1.46,.4-.4,.89-.6,1.46-.6h16.92c.57,0,1.06,.2,1.46,.6,.4,.4,.6,.89,.6,1.46s-.2,1.02-.59,1.43c-.4,.41-.89,.62-1.47,.62h-14.86v8.63h8.54c.57,0,1.06,.2,1.46,.6,.4,.4,.6,.89,.6,1.46,0,.54-.2,1.02-.59,1.43-.4,.41-.89,.62-1.47,.62h-8.54v7.79h14.86c.57,0,1.06,.2,1.46,.6,.4,.4,.6,.89,.6,1.46s-.2,1.02-.59,1.43c-.4,.41-.89,.62-1.47,.62Zm-16.92-27.85c-.33,0-.59,.11-.82,.33-.22,.22-.33,.49-.33,.82v24.64c0,.33,.11,.59,.34,.81,.24,.23,.5,.34,.8,.34h16.92c.33,0,.59-.11,.81-.34,.23-.24,.34-.5,.34-.8,0-.33-.11-.59-.33-.82-.22-.22-.49-.33-.82-.33h-15.77v-9.6h9.44c.33,0,.59-.11,.81-.34,.23-.24,.34-.5,.34-.8,0-.33-.11-.6-.33-.82-.22-.22-.49-.33-.82-.33h-9.44v-10.45h15.77c.33,0,.59-.11,.81-.34,.23-.24,.34-.5,.34-.8,0-.33-.11-.59-.33-.82s-.49-.33-.82-.33h-16.92Z"/><path class="cls-2" d="M96.42,149.33h-16.92c-.77,0-1.48-.29-2.06-.84-.59-.57-.91-1.3-.91-2.12v-24.64c0-.81,.3-1.54,.86-2.1,.57-.57,1.29-.86,2.1-.86h16.92c.81,0,1.53,.3,2.1,.86,.57,.57,.86,1.3,.86,2.1s-.29,1.49-.84,2.06c-.57,.59-1.3,.9-2.12,.9h-13.96v6.81h7.63c.81,0,1.53,.3,2.1,.86,.57,.57,.86,1.29,.86,2.1s-.29,1.48-.84,2.06c-.57,.59-1.3,.91-2.12,.91h-7.63v5.97h13.96c.81,0,1.54,.3,2.1,.86,.57,.57,.86,1.3,.86,2.1s-.29,1.49-.84,2.06c-.57,.59-1.3,.91-2.12,.91Zm-16.92-27.85c-.1,0-.13,.02-.18,.07-.04,.04-.06,.07-.06,.18v24.64c0,.09,.01,.11,.07,.16,.09,.08,.13,.08,.18,.08h16.92c.09,0,.11-.01,.16-.07,.08-.09,.08-.13,.08-.18,0-.1-.02-.13-.07-.18-.04-.04-.07-.06-.17-.06h-16.68v-11.42h10.35c.08,0,.1,0,.16-.07,.08-.09,.08-.13,.08-.18,0-.1-.02-.14-.06-.18s-.07-.06-.18-.06h-10.35v-12.26h16.68c.09,0,.11-.01,.16-.07,.08-.09,.08-.13,.08-.18,0-.1-.02-.13-.07-.18-.04-.04-.07-.06-.18-.06h-16.92Z"/></g></g><g><g><path class="cls-2" d="M111.15,122.31c-.08-.2-.13-.41-.13-.63,0-.39,.14-.76,.42-1.1,.28-.34,.66-.51,1.14-.51,.31,0,.6,.08,.87,.25,.27,.17,.47,.41,.61,.72l9.2,21.48,9.2-21.48c.28-.65,.77-.97,1.48-.97,.48,0,.86,.17,1.14,.51,.28,.34,.42,.7,.42,1.1,0,.23-.04,.44-.13,.63l-10.63,24.85c-.17,.39-.45,.67-.84,.84-.23,.08-.44,.13-.63,.13-.7,0-1.2-.32-1.48-.97l-10.63-24.85Z"/><path class="cls-2" d="M123.26,149.05c-1.06,0-1.88-.54-2.31-1.52l-10.64-24.86c-.13-.31-.2-.64-.2-.99,0-.61,.21-1.18,.63-1.68,.45-.54,1.09-.83,1.84-.83,.48,0,.94,.13,1.35,.39,.42,.26,.74,.64,.95,1.11l8.37,19.55,8.36-19.53c.43-.98,1.25-1.52,2.31-1.52,.75,0,1.38,.29,1.84,.83,.42,.5,.63,1.07,.63,1.68,0,.35-.07,.68-.2,.99l-10.63,24.85c-.26,.6-.71,1.06-1.32,1.32-.37,.14-.69,.2-.99,.2Zm-10.68-28.06c-.26,0-.36,.08-.44,.18-.19,.23-.21,.4-.21,.52,0,.1,.02,.19,.05,.28h0s10.63,24.86,10.63,24.86c.14,.31,.3,.42,.64,.42,.09,0,.2-.02,.32-.07,.14-.06,.25-.17,.33-.35l10.63-24.85c.04-.08,.05-.17,.05-.28,0-.11-.02-.29-.21-.51-.09-.11-.2-.18-.44-.18-.34,0-.51,.11-.64,.42l-10.03,23.42-10.03-23.43c-.06-.13-.15-.23-.26-.31-.12-.08-.24-.11-.38-.11Z"/></g><g><path class="cls-2" d="M123.26,148.59c-.89,0-1.54-.43-1.89-1.24l-10.63-24.86c-.11-.25-.16-.53-.16-.81,0-.5,.18-.97,.53-1.39,.37-.44,.87-.67,1.49-.67,.4,0,.77,.11,1.11,.32,.34,.22,.6,.52,.78,.91l8.79,20.51,8.78-20.51c.35-.82,1.01-1.25,1.89-1.25,.61,0,1.12,.23,1.49,.67,.35,.42,.53,.89,.53,1.39,0,.29-.05,.56-.16,.81l-10.63,24.85c-.21,.5-.58,.87-1.08,1.08-.29,.11-.56,.16-.81,.16Zm-10.68-28.06c-.34,0-.6,.11-.79,.34-.21,.26-.32,.52-.32,.81,0,.16,.03,.31,.09,.46l10.63,24.85c.21,.48,.54,.69,1.06,.69,.14,0,.3-.03,.47-.1,.27-.12,.47-.31,.59-.6l10.63-24.85c.06-.14,.09-.29,.09-.46,0-.29-.1-.55-.32-.81-.19-.23-.44-.34-.79-.34-.52,0-.85,.22-1.06,.7l-9.62,22.45-9.62-22.45c-.1-.22-.25-.39-.44-.51-.2-.12-.4-.18-.62-.18Z"/><path class="cls-2" d="M123.26,149.5c-1.24,0-2.23-.65-2.73-1.79l-10.64-24.86c-.16-.36-.24-.76-.24-1.17,0-.72,.25-1.38,.74-1.97,.54-.65,1.3-1,2.18-1,.57,0,1.1,.16,1.59,.46,.49,.31,.87,.75,1.12,1.3l7.96,18.59,7.95-18.56c.5-1.14,1.49-1.8,2.73-1.8,.87,0,1.65,.35,2.19,1,.49,.59,.74,1.25,.74,1.97,0,.41-.08,.8-.24,1.17l-10.63,24.85c-.31,.71-.84,1.25-1.56,1.56-.43,.16-.8,.24-1.17,.24Zm-.15-2.74s.04,.02,.15,.02c0,0,.05,0,.15-.04,0,0,.04-.02,.08-.11l10.63-24.85s.02-.05,.02-.1c0-.03,0-.1-.11-.23h-.09c-.11-.01-.15,0-.15,0h0s-.03,.03-.08,.13l-10.45,24.4-10.45-24.4c-.03-.06-.06-.08-.09-.1-.14-.09-.23-.03-.23-.03-.11,.13-.11,.2-.11,.23,0,.05,0,.08,.02,.09l10.64,24.86c.04,.1,.07,.13,.08,.13h0Z"/></g></g><g><g><path class="cls-2" d="M148.37,121.72c0-.45,.15-.83,.46-1.14,.31-.31,.69-.46,1.14-.46h16.92c.45,0,.83,.16,1.14,.46s.46,.69,.46,1.14c0,.42-.15,.8-.46,1.12-.31,.32-.69,.49-1.14,.49h-15.32v9.54h8.99c.45,0,.83,.15,1.14,.46,.31,.31,.46,.69,.46,1.14,0,.42-.15,.79-.46,1.12-.31,.32-.69,.49-1.14,.49h-8.99v8.69h15.32c.45,0,.83,.16,1.14,.46,.31,.31,.46,.69,.46,1.14,0,.42-.15,.8-.46,1.12-.31,.32-.69,.49-1.14,.49h-16.92c-.42,0-.79-.15-1.12-.46-.32-.31-.49-.69-.49-1.14v-24.64Z"/><path class="cls-2" d="M166.89,148.88h-16.92c-.65,0-1.26-.25-1.75-.72-.5-.48-.77-1.1-.77-1.8v-24.64c0-.69,.25-1.3,.73-1.78,.48-.48,1.09-.73,1.78-.73h16.92c.69,0,1.3,.25,1.78,.73,.48,.48,.73,1.09,.73,1.78s-.25,1.26-.72,1.75c-.48,.5-1.1,.77-1.79,.77h-14.41v7.72h8.08c.69,0,1.3,.25,1.78,.73s.73,1.09,.73,1.78c0,.65-.25,1.26-.72,1.75-.48,.5-1.1,.77-1.79,.77h-8.08v6.88h14.41c.69,0,1.3,.25,1.78,.73,.48,.48,.73,1.1,.73,1.78s-.25,1.26-.72,1.75c-.48,.5-1.1,.77-1.79,.77Zm-16.92-27.85c-.21,0-.36,.06-.5,.2s-.2,.29-.2,.5v24.64c0,.2,.06,.35,.2,.48,.15,.15,.31,.21,.49,.21h16.92c.2,0,.35-.06,.48-.2,.15-.16,.21-.3,.21-.49,0-.21-.06-.36-.2-.5s-.29-.2-.5-.2h-16.23v-10.51h9.9c.2,0,.34-.06,.48-.2,.15-.15,.21-.3,.21-.49,0-.21-.06-.36-.2-.5-.14-.14-.29-.2-.5-.2h-9.9v-11.35h16.23c.2,0,.35-.06,.48-.2,.15-.15,.21-.3,.21-.49,0-.21-.06-.36-.2-.5-.14-.14-.29-.2-.5-.2h-16.92Z"/></g><g><path class="cls-2" d="M166.89,148.42h-16.92c-.54,0-1.02-.2-1.43-.59-.41-.4-.62-.89-.62-1.47v-24.64c0-.57,.2-1.06,.6-1.46,.4-.4,.89-.6,1.46-.6h16.92c.57,0,1.06,.2,1.46,.6,.4,.4,.6,.89,.6,1.46s-.2,1.02-.59,1.43c-.4,.41-.89,.62-1.47,.62h-14.86v8.63h8.53c.57,0,1.06,.2,1.46,.6,.4,.4,.6,.89,.6,1.46,0,.54-.2,1.02-.59,1.43-.4,.41-.89,.62-1.47,.62h-8.53v7.79h14.86c.57,0,1.06,.2,1.46,.6,.4,.4,.6,.89,.6,1.46s-.2,1.02-.59,1.43c-.4,.41-.89,.62-1.47,.62Zm-16.92-27.85c-.33,0-.59,.11-.82,.33-.22,.22-.33,.49-.33,.82v24.64c0,.33,.11,.59,.34,.81,.24,.23,.5,.34,.8,.34h16.92c.33,0,.59-.11,.81-.34,.23-.24,.34-.5,.34-.8,0-.33-.11-.59-.33-.82-.22-.22-.49-.33-.82-.33h-15.77v-9.6h9.44c.33,0,.59-.11,.81-.34,.23-.24,.34-.5,.34-.8,0-.33-.11-.6-.33-.82-.22-.22-.49-.33-.82-.33h-9.44v-10.45h15.77c.33,0,.59-.11,.81-.34,.23-.24,.34-.5,.34-.8,0-.33-.11-.59-.33-.82s-.49-.33-.82-.33h-16.92Z"/><path class="cls-2" d="M166.89,149.33h-16.92c-.77,0-1.48-.29-2.06-.84-.59-.57-.91-1.3-.91-2.12v-24.64c0-.81,.3-1.54,.86-2.1,.57-.57,1.29-.86,2.1-.86h16.92c.81,0,1.53,.3,2.1,.86,.57,.57,.87,1.3,.87,2.1s-.29,1.49-.84,2.06c-.57,.59-1.3,.9-2.12,.9h-13.96v6.81h7.63c.81,0,1.53,.3,2.1,.86,.57,.57,.87,1.3,.87,2.1s-.29,1.48-.84,2.06c-.57,.59-1.3,.91-2.12,.91h-7.63v5.97h13.96c.81,0,1.54,.3,2.1,.86,.57,.57,.86,1.3,.86,2.1s-.29,1.49-.84,2.06c-.57,.59-1.3,.91-2.12,.91Zm-16.92-27.85c-.1,0-.13,.02-.18,.06-.04,.04-.07,.07-.07,.18v24.64c0,.09,.01,.11,.07,.16,.09,.08,.13,.08,.18,.08h16.92c.08,0,.1,0,.16-.07,.09-.09,.09-.13,.09-.18,0-.1-.02-.13-.07-.18-.04-.04-.07-.06-.17-.06h-16.68v-11.42h10.35c.08,0,.1,0,.16-.07,.09-.09,.09-.13,.09-.18,0-.1-.02-.13-.07-.18-.04-.04-.07-.06-.18-.06h-10.35v-12.26h16.68c.08,0,.1,0,.16-.07,.09-.09,.09-.13,.09-.18,0-.1-.02-.13-.07-.18-.04-.04-.07-.07-.18-.07h-16.92Z"/></g></g><g><g><path class="cls-2" d="M182.34,121.72c0-.45,.15-.83,.46-1.14,.31-.31,.69-.46,1.14-.46,.42,0,.79,.16,1.12,.46,.32,.31,.49,.69,.49,1.14v23.04h15.32c.45,0,.83,.16,1.14,.46,.31,.31,.46,.69,.46,1.14,0,.42-.15,.8-.46,1.12-.31,.32-.69,.49-1.14,.49h-16.92c-.42,0-.79-.15-1.12-.46-.32-.31-.49-.69-.49-1.14v-24.64Z"/><path class="cls-2" d="M200.86,148.88h-16.92c-.65,0-1.26-.25-1.75-.72-.5-.48-.77-1.1-.77-1.8v-24.64c0-.69,.25-1.3,.73-1.78,.93-.93,2.52-.98,3.53-.02,.5,.48,.77,1.1,.77,1.8v22.13h14.41c.69,0,1.3,.25,1.78,.73,.48,.48,.73,1.1,.73,1.78s-.25,1.26-.72,1.75c-.48,.5-1.1,.77-1.79,.77Zm-16.92-27.85c-.21,0-.36,.06-.5,.2-.14,.14-.2,.29-.2,.5v24.64c0,.2,.06,.35,.2,.48,.15,.15,.31,.21,.49,.21h16.92c.2,0,.35-.06,.48-.2,.15-.16,.21-.3,.21-.49,0-.21-.06-.36-.2-.5-.14-.14-.29-.2-.5-.2h-16.23v-23.95c0-.2-.06-.35-.21-.48-.15-.15-.3-.21-.49-.21Z"/></g><g><path class="cls-2" d="M200.86,148.42h-16.92c-.54,0-1.02-.2-1.43-.59-.41-.4-.62-.89-.62-1.47v-24.64c0-.57,.2-1.06,.6-1.46,.77-.77,2.05-.81,2.89,0,.42,.4,.63,.89,.63,1.47v22.59h14.86c.57,0,1.06,.2,1.46,.6,.4,.4,.6,.89,.6,1.46s-.2,1.02-.59,1.43c-.4,.41-.89,.62-1.47,.62Zm-16.92-27.85c-.33,0-.59,.11-.82,.33-.22,.22-.33,.49-.33,.82v24.64c0,.33,.11,.59,.34,.81,.24,.23,.5,.34,.8,.34h16.92c.32,0,.59-.11,.81-.34,.23-.24,.34-.5,.34-.8,0-.33-.11-.59-.33-.82-.22-.22-.49-.33-.82-.33h-15.77v-23.49c0-.32-.11-.59-.35-.81-.24-.23-.5-.34-.8-.34Z"/><path class="cls-2" d="M200.86,149.33h-16.92c-.77,0-1.48-.29-2.06-.84-.59-.57-.91-1.3-.91-2.12v-24.64c0-.81,.3-1.53,.86-2.1,1.15-1.15,2.98-1.16,4.16-.02,.59,.57,.91,1.3,.91,2.12v21.68h13.96c.81,0,1.54,.3,2.1,.86,.57,.57,.86,1.3,.86,2.1s-.29,1.48-.84,2.06c-.56,.59-1.3,.91-2.12,.91Zm-16.92-27.85c-.1,0-.14,.02-.18,.07-.04,.04-.06,.07-.06,.18v24.64c0,.09,.01,.1,.07,.16,.09,.08,.14,.08,.18,.08h16.92c.08,0,.11-.01,.15-.06,.09-.09,.09-.14,.09-.18,0-.1-.02-.13-.07-.18-.04-.04-.07-.06-.17-.06h-16.68v-24.4c0-.08-.01-.1-.07-.16-.09-.09-.14-.09-.18-.09Z"/></g></g><g><g><path class="cls-2" d="M214.74,129.23c0-1.38,.27-2.67,.8-3.88,.53-1.21,1.25-2.27,2.15-3.19,.9-.91,1.96-1.63,3.19-2.15,1.22-.52,2.54-.78,3.95-.78s2.67,.26,3.88,.78c1.21,.52,2.27,1.24,3.19,2.15,.91,.91,1.64,1.98,2.17,3.19,.53,1.21,.8,2.5,.8,3.88v9.62c0,1.38-.27,2.67-.8,3.88-.53,1.21-1.25,2.27-2.15,3.19-.9,.91-1.96,1.63-3.19,2.15-1.22,.52-2.53,.78-3.9,.78s-2.68-.26-3.9-.78c-1.22-.52-2.29-1.24-3.21-2.15-.91-.91-1.64-1.98-2.17-3.19-.53-1.21-.8-2.5-.8-3.88v-9.62Zm3.21,9.62c0,.93,.18,1.81,.55,2.64,.37,.83,.86,1.55,1.48,2.15,.62,.61,1.35,1.09,2.19,1.46,.84,.37,1.73,.55,2.66,.55s1.85-.18,2.68-.55c.83-.37,1.55-.85,2.17-1.46,.62-.61,1.1-1.32,1.46-2.15,.35-.83,.53-1.71,.53-2.64v-9.62c0-.93-.18-1.81-.55-2.64-.37-.83-.86-1.55-1.48-2.15-.62-.61-1.34-1.09-2.17-1.46-.83-.37-1.71-.55-2.64-.55s-1.86,.18-2.7,.55c-.84,.37-1.58,.85-2.19,1.46s-1.1,1.32-1.46,2.15c-.35,.83-.53,1.71-.53,2.64v9.62Z"/><path class="cls-2" d="M224.83,149.76c-1.49,0-2.93-.29-4.26-.85-1.33-.57-2.5-1.36-3.49-2.35-.99-.99-1.78-2.15-2.36-3.46-.58-1.32-.88-2.75-.88-4.25v-9.62c0-1.5,.3-2.93,.88-4.25,.58-1.31,1.36-2.47,2.34-3.46,.98-1,2.15-1.79,3.48-2.35,2.64-1.12,5.88-1.14,8.54,0,1.31,.56,2.48,1.35,3.47,2.34,.99,.99,1.78,2.15,2.36,3.46,.58,1.32,.88,2.75,.88,4.25v9.62c0,1.5-.3,2.93-.88,4.25-.58,1.3-1.36,2.47-2.34,3.46-.98,.99-2.15,1.78-3.48,2.35-1.33,.57-2.77,.85-4.26,.85Zm0-29.62c-1.28,0-2.48,.24-3.59,.71-1.11,.47-2.08,1.13-2.89,1.95-.82,.83-1.48,1.81-1.97,2.92-.48,1.09-.72,2.27-.72,3.52v9.62c0,1.25,.24,2.43,.72,3.51,.49,1.1,1.15,2.08,1.99,2.91,.82,.83,1.81,1.48,2.92,1.96,2.21,.94,4.88,.94,7.1,0,1.11-.47,2.08-1.13,2.89-1.95,.82-.83,1.48-1.81,1.97-2.92,.48-1.09,.72-2.27,.72-3.52v-9.62c0-1.25-.24-2.43-.72-3.52-.49-1.1-1.15-2.08-1.98-2.91-.83-.83-1.81-1.49-2.9-1.96-1.09-.47-2.28-.71-3.52-.71Zm0,26.42c-1.05,0-2.06-.21-3.02-.62-.94-.41-1.78-.96-2.47-1.64-.7-.68-1.26-1.5-1.67-2.43-.42-.94-.63-1.95-.63-3v-9.62c0-1.04,.2-2.05,.6-2.99,.4-.94,.95-1.76,1.66-2.45,.69-.68,1.53-1.23,2.47-1.64,1.88-.82,4.16-.84,6.06,0,.93,.41,1.75,.96,2.44,1.64,.7,.68,1.26,1.5,1.67,2.44,.42,.94,.63,1.95,.63,3v9.62c0,1.05-.2,2.05-.6,2.99-.4,.94-.95,1.76-1.66,2.45-.7,.68-1.52,1.23-2.44,1.64-.94,.42-1.97,.63-3.05,.63Zm0-23.21c-.83,0-1.62,.16-2.34,.47-.74,.32-1.39,.75-1.92,1.27-.53,.52-.95,1.14-1.25,1.86-.3,.71-.45,1.48-.45,2.28v9.62c0,.8,.16,1.56,.47,2.27,.32,.72,.75,1.35,1.28,1.87,.54,.52,1.18,.95,1.92,1.27,1.48,.64,3.21,.62,4.61,0,.72-.32,1.37-.75,1.9-1.27,.53-.52,.95-1.14,1.25-1.86,.3-.71,.45-1.48,.45-2.28v-9.62c0-.8-.16-1.56-.47-2.27-.32-.72-.75-1.35-1.28-1.87-.54-.53-1.18-.95-1.9-1.27-.71-.31-1.47-.47-2.27-.47Z"/></g><g><path class="cls-2" d="M224.83,149.31c-1.43,0-2.8-.27-4.08-.82-1.27-.54-2.4-1.3-3.35-2.25-.95-.95-1.71-2.07-2.27-3.32-.56-1.26-.84-2.63-.84-4.07v-9.62c0-1.44,.28-2.81,.84-4.07,.55-1.26,1.31-2.37,2.24-3.32,.94-.95,2.06-1.71,3.33-2.25,2.52-1.07,5.64-1.1,8.18,0,1.26,.54,2.37,1.3,3.33,2.25,.95,.95,1.71,2.07,2.27,3.32,.56,1.26,.84,2.63,.84,4.07v9.62c0,1.44-.28,2.8-.84,4.07-.55,1.26-1.31,2.37-2.24,3.32-.94,.95-2.06,1.71-3.33,2.25-1.28,.54-2.65,.82-4.08,.82Zm0-29.62c-1.34,0-2.61,.25-3.77,.74-1.16,.49-2.19,1.19-3.04,2.05-.86,.87-1.55,1.9-2.06,3.05-.51,1.15-.76,2.39-.76,3.7v9.62c0,1.31,.26,2.55,.76,3.7,.51,1.15,1.21,2.18,2.08,3.05,.87,.87,1.9,1.56,3.06,2.06,2.33,.99,5.13,.99,7.45,0,1.16-.49,2.19-1.19,3.04-2.05,.86-.87,1.55-1.9,2.06-3.05,.51-1.15,.76-2.39,.76-3.7v-9.62c0-1.31-.26-2.55-.76-3.7-.51-1.15-1.21-2.18-2.08-3.05-.87-.87-1.9-1.56-3.04-2.06-1.15-.49-2.39-.74-3.7-.74Zm0,26.42c-.99,0-1.94-.2-2.84-.59-.89-.39-1.68-.91-2.33-1.55-.66-.64-1.19-1.42-1.58-2.29-.39-.88-.59-1.83-.59-2.82v-9.62c0-.99,.19-1.93,.56-2.82,.37-.88,.9-1.65,1.56-2.3,.65-.64,1.44-1.16,2.33-1.55,1.77-.77,3.91-.79,5.7,0,.88,.39,1.65,.91,2.31,1.55,.66,.64,1.19,1.42,1.57,2.29,.39,.89,.59,1.84,.59,2.82v9.62c0,.99-.19,1.93-.56,2.81-.37,.88-.9,1.65-1.56,2.3-.66,.64-1.43,1.16-2.31,1.55-.88,.39-1.85,.59-2.86,.59Zm0-23.21c-.89,0-1.74,.17-2.52,.51-.79,.34-1.48,.8-2.06,1.36-.57,.56-1.03,1.23-1.36,2.01-.33,.77-.49,1.6-.49,2.46v9.62c0,.86,.17,1.69,.51,2.45,.34,.77,.8,1.45,1.38,2.01s1.27,1.02,2.06,1.36c1.59,.69,3.46,.67,4.97,0,.78-.34,1.46-.8,2.04-1.36,.57-.56,1.03-1.24,1.36-2.01,.33-.77,.49-1.6,.49-2.46v-9.62c0-.86-.17-1.69-.51-2.46-.34-.77-.8-1.45-1.38-2.01-.58-.56-1.26-1.02-2.04-1.37-.77-.34-1.59-.51-2.45-.51Z"/><path class="cls-2" d="M224.83,150.22c-1.55,0-3.05-.3-4.44-.89-1.38-.59-2.6-1.41-3.64-2.44-1.03-1.03-1.86-2.24-2.45-3.6-.61-1.37-.92-2.86-.92-4.43v-9.62c0-1.57,.31-3.06,.92-4.43,.6-1.36,1.41-2.56,2.43-3.59,1.02-1.04,2.24-1.86,3.62-2.45,2.76-1.18,6.17-1.18,8.9,0,1.36,.59,2.58,1.41,3.61,2.44,1.03,1.03,1.85,2.24,2.46,3.6,.61,1.38,.92,2.87,.92,4.43v9.62c0,1.56-.31,3.05-.92,4.43-.6,1.36-1.41,2.56-2.43,3.59-1.02,1.04-2.24,1.86-3.63,2.45-1.39,.59-2.88,.89-4.44,.89Zm0-29.62c-1.22,0-2.36,.23-3.41,.67-1.05,.45-1.98,1.07-2.75,1.86-.78,.79-1.41,1.73-1.88,2.78-.45,1.03-.69,2.15-.69,3.33v9.62c0,1.18,.23,2.3,.69,3.33,.46,1.05,1.1,1.98,1.89,2.77,.78,.78,1.72,1.41,2.78,1.86,2.11,.9,4.63,.9,6.74,0,1.05-.45,1.98-1.07,2.75-1.85,.78-.79,1.41-1.73,1.88-2.78,.45-1.03,.69-2.15,.69-3.33v-9.62c0-1.18-.23-2.3-.69-3.33-.46-1.05-1.1-1.98-1.89-2.77-.79-.79-1.72-1.41-2.76-1.86-1.03-.44-2.16-.67-3.34-.67Zm0,26.42c-1.11,0-2.19-.22-3.2-.66-1-.43-1.87-1.02-2.61-1.73-.74-.73-1.34-1.59-1.77-2.58-.44-1-.66-2.07-.66-3.19v-9.62c0-1.11,.21-2.17,.64-3.17,.42-.99,1.01-1.87,1.76-2.59,.73-.72,1.61-1.3,2.6-1.73,2.03-.88,4.43-.88,6.43,0,.98,.43,1.85,1.02,2.58,1.73,.74,.73,1.34,1.59,1.77,2.58,.44,1,.67,2.07,.67,3.19v9.62c0,1.11-.21,2.17-.64,3.17-.42,.99-1.01,1.86-1.76,2.59-.73,.72-1.6,1.3-2.58,1.73-1,.44-2.09,.66-3.23,.66Zm0-23.21c-.76,0-1.49,.15-2.16,.44-.69,.3-1.29,.69-1.78,1.18-.49,.48-.88,1.05-1.16,1.71-.28,.66-.42,1.37-.42,2.11v9.62c0,.73,.14,1.44,.43,2.09,.29,.66,.69,1.25,1.18,1.73,.5,.48,1.1,.88,1.78,1.18,1.32,.57,2.95,.57,4.25,0,.68-.3,1.27-.7,1.77-1.18,.49-.48,.88-1.05,1.15-1.71,.28-.66,.42-1.36,.42-2.11v-9.62c0-.73-.15-1.44-.43-2.09-.29-.66-.69-1.25-1.18-1.73-.5-.49-1.09-.89-1.77-1.18-.65-.29-1.35-.43-2.09-.43Z"/></g></g><g><g><path class="cls-2" d="M248.54,121.72c0-.45,.15-.83,.46-1.14,.31-.31,.69-.46,1.14-.46h8.48c1.38,0,2.67,.26,3.88,.78,1.21,.52,2.27,1.22,3.19,2.11,.91,.89,1.64,1.93,2.17,3.14,.53,1.21,.8,2.5,.8,3.88s-.27,2.67-.8,3.86c-.53,1.2-1.25,2.24-2.15,3.14-.9,.9-1.96,1.61-3.19,2.13-1.22,.52-2.53,.78-3.9,.78h-6.88v6.41c0,.45-.15,.83-.46,1.14-.31,.31-.69,.46-1.14,.46-.42,0-.79-.15-1.12-.46-.32-.31-.49-.69-.49-1.14v-24.64Zm3.21,1.6v13.42h6.88c.96,0,1.85-.18,2.68-.53,.83-.35,1.55-.83,2.17-1.44,.62-.6,1.1-1.31,1.46-2.13,.35-.82,.53-1.69,.53-2.62s-.18-1.8-.55-2.62c-.37-.82-.86-1.53-1.48-2.13-.62-.61-1.34-1.08-2.17-1.44-.83-.35-1.71-.53-2.64-.53h-6.88Z"/><path class="cls-2" d="M250.15,148.88c-.65,0-1.26-.25-1.75-.72-.5-.48-.77-1.1-.77-1.8v-24.64c0-.69,.25-1.3,.73-1.78,.48-.48,1.09-.73,1.78-.73h8.44c1.54,0,2.96,.29,4.28,.86,1.31,.56,2.47,1.33,3.46,2.29,.99,.97,1.79,2.12,2.37,3.43,.58,1.32,.88,2.75,.88,4.25s-.3,2.92-.88,4.23c-.58,1.29-1.36,2.44-2.34,3.42-.98,.98-2.15,1.76-3.47,2.32-1.33,.57-2.76,.85-4.26,.85h-5.97v5.51c0,.69-.25,1.3-.73,1.78-.48,.48-1.09,.73-1.78,.73Zm0-27.85c-.21,0-.36,.06-.5,.2-.14,.14-.2,.29-.2,.5v24.64c0,.2,.06,.35,.2,.48,.33,.31,.72,.28,.99,.01,.14-.14,.2-.29,.2-.5v-7.32h7.79c1.25,0,2.44-.24,3.55-.71,1.11-.47,2.08-1.12,2.9-1.94,.82-.82,1.48-1.79,1.97-2.87,.48-1.07,.72-2.25,.72-3.49s-.24-2.43-.72-3.52c-.48-1.1-1.15-2.06-1.97-2.86-.83-.8-1.81-1.45-2.91-1.93-1.09-.47-2.28-.71-3.52-.71h-8.48Zm8.48,16.63h-7.79v-15.24h7.79c1.04,0,2.05,.2,2.99,.6,.93,.4,1.76,.94,2.45,1.62,.7,.68,1.26,1.49,1.67,2.41,.42,.93,.63,1.94,.63,2.99s-.2,2.05-.6,2.98c-.4,.92-.95,1.73-1.65,2.42-.7,.68-1.52,1.23-2.45,1.62-.94,.4-1.96,.6-3.03,.6Zm-5.97-1.82h5.97c.83,0,1.61-.15,2.32-.45,.72-.31,1.36-.73,1.89-1.25,.53-.52,.95-1.14,1.26-1.84,.3-.7,.45-1.46,.45-2.26s-.16-1.55-.47-2.25c-.32-.71-.75-1.33-1.28-1.85-.53-.52-1.17-.94-1.89-1.25-.71-.3-1.48-.45-2.28-.45h-5.97v11.6Z"/></g><g><path class="cls-2" d="M250.15,148.42c-.54,0-1.02-.2-1.43-.59-.41-.4-.62-.89-.62-1.47v-24.64c0-.57,.2-1.06,.6-1.46,.4-.4,.89-.6,1.46-.6h8.44c1.47,0,2.84,.27,4.1,.82,1.26,.54,2.37,1.28,3.32,2.2,.95,.92,1.72,2.03,2.27,3.29,.56,1.26,.84,2.63,.84,4.07s-.28,2.8-.84,4.05c-.55,1.24-1.31,2.34-2.25,3.28s-2.06,1.69-3.33,2.23c-1.27,.54-2.65,.82-4.08,.82h-6.42v5.96c0,.57-.2,1.06-.6,1.46s-.89,.6-1.46,.6Zm0-27.85c-.33,0-.6,.11-.82,.33-.22,.22-.33,.49-.33,.82v24.64c0,.33,.11,.59,.34,.81,.49,.47,1.19,.44,1.62,0,.22-.22,.33-.49,.33-.82v-6.87h7.33c1.31,0,2.56-.25,3.73-.74,1.16-.49,2.19-1.18,3.04-2.03s1.55-1.87,2.06-3.01c.51-1.13,.76-2.37,.76-3.68s-.26-2.55-.76-3.7c-.51-1.15-1.21-2.16-2.07-3-.87-.84-1.9-1.52-3.05-2.02-1.15-.49-2.4-.74-3.7-.74h-8.48Zm8.48,16.63h-7.33v-14.33h7.33c.98,0,1.93,.19,2.81,.56,.88,.37,1.66,.89,2.31,1.53,.66,.64,1.19,1.41,1.57,2.27,.39,.87,.59,1.81,.59,2.8s-.19,1.93-.56,2.8c-.37,.87-.9,1.63-1.55,2.28-.66,.64-1.43,1.15-2.31,1.53-.88,.37-1.84,.56-2.86,.56Zm-6.42-.91h6.42c.89,0,1.73-.17,2.5-.49,.78-.33,1.46-.78,2.03-1.34,.57-.56,1.03-1.23,1.36-1.99,.33-.76,.49-1.58,.49-2.44s-.17-1.68-.51-2.43c-.34-.76-.8-1.43-1.38-1.99-.58-.56-1.26-1.01-2.03-1.34-.77-.33-1.6-.49-2.46-.49h-6.42v12.51Z"/><path class="cls-2" d="M250.15,149.33c-.77,0-1.48-.29-2.06-.84-.59-.56-.91-1.3-.91-2.12v-24.64c0-.81,.3-1.54,.86-2.1,.56-.56,1.29-.86,2.1-.86h8.44c1.59,0,3.09,.3,4.46,.89,1.36,.59,2.57,1.39,3.59,2.38,1.04,1.01,1.87,2.21,2.47,3.57,.61,1.38,.92,2.87,.92,4.43s-.31,3.05-.92,4.42c-.6,1.34-1.42,2.54-2.43,3.55-1.02,1.02-2.24,1.84-3.62,2.42-1.39,.59-2.88,.89-4.44,.89h-5.52v5.05c0,.81-.3,1.54-.86,2.1-.57,.56-1.29,.86-2.1,.86Zm0-27.85c-.1,0-.13,.02-.17,.06-.05,.05-.07,.08-.07,.18v24.64c0,.09,.01,.1,.07,.16,.14,.13,.28,.1,.35,.02,.04-.04,.06-.07,.06-.18v-7.78h8.24c1.19,0,2.32-.23,3.37-.67,1.06-.45,1.98-1.07,2.76-1.84s1.41-1.7,1.87-2.74c.45-1.01,.68-2.12,.68-3.31s-.23-2.3-.69-3.33c-.46-1.04-1.09-1.96-1.87-2.72-.79-.76-1.72-1.38-2.78-1.84-1.03-.44-2.16-.67-3.34-.67h-8.48Zm8.48,16.63h-8.24v-16.14h8.24c1.1,0,2.17,.21,3.17,.63,.98,.42,1.86,1,2.59,1.72,.74,.73,1.34,1.58,1.77,2.55,.44,.99,.67,2.06,.67,3.17s-.22,2.17-.64,3.15c-.42,.98-1.01,1.84-1.75,2.57-.73,.72-1.61,1.3-2.59,1.72-1,.42-2.08,.64-3.21,.64Zm-5.52-2.72h5.52c.77,0,1.49-.14,2.15-.42,.67-.28,1.26-.67,1.75-1.15,.49-.48,.88-1.05,1.16-1.7,.28-.64,.41-1.34,.41-2.08s-.14-1.42-.43-2.06c-.29-.65-.69-1.23-1.19-1.72-.49-.48-1.08-.87-1.75-1.15-.66-.28-1.37-.42-2.11-.42h-5.52v10.7Z"/></g></g><g><g><path class="cls-2" d="M281.37,129.95c0-1.38,.24-2.67,.72-3.88,.48-1.21,1.15-2.26,2-3.16,.86-.9,1.87-1.62,3.04-2.15,1.17-.53,2.44-.8,3.82-.8,1.69,0,3.15,.33,4.39,.99,1.24,.66,2.26,1.54,3.08,2.64,.9-1.07,1.95-1.94,3.14-2.62,1.2-.67,2.62-1.01,4.28-1.01,1.38,0,2.66,.27,3.84,.8,1.18,.53,2.2,1.25,3.06,2.15,.86,.9,1.53,1.96,2,3.16,.48,1.21,.72,2.5,.72,3.88v16.41c0,.45-.16,.83-.49,1.14-.32,.31-.7,.46-1.12,.46-.45,0-.83-.15-1.14-.46-.31-.31-.46-.69-.46-1.14v-16.41c0-.93-.16-1.81-.46-2.64-.31-.83-.75-1.55-1.31-2.15-.56-.6-1.24-1.09-2.03-1.46-.79-.37-1.66-.55-2.62-.55s-1.76,.18-2.49,.55c-.73,.37-1.34,.85-1.84,1.46-.49,.61-.87,1.32-1.12,2.15-.25,.83-.38,1.71-.38,2.64v16.41c0,.45-.15,.83-.46,1.14-.31,.31-.69,.46-1.14,.46s-.83-.15-1.14-.46c-.31-.31-.46-.69-.46-1.14v-16.46c0-.93-.13-1.8-.4-2.62-.27-.82-.65-1.53-1.14-2.13-.49-.6-1.1-1.09-1.84-1.46-.73-.37-1.56-.55-2.49-.55s-1.79,.18-2.57,.55c-.79,.37-1.46,.85-2.03,1.46-.56,.61-1,1.32-1.31,2.15-.31,.83-.46,1.71-.46,2.64v16.41c0,.45-.16,.83-.49,1.14-.32,.31-.7,.46-1.12,.46-.45,0-.83-.15-1.14-.46-.31-.31-.46-.69-.46-1.14v-16.41Z"/><path class="cls-2" d="M313.87,148.88c-.69,0-1.3-.25-1.78-.73-.48-.48-.73-1.09-.73-1.78v-16.41c0-.81-.14-1.59-.41-2.32-.27-.71-.64-1.34-1.12-1.85-.48-.51-1.07-.93-1.74-1.25-1.3-.6-3.09-.63-4.32-.01-.62,.31-1.12,.71-1.54,1.22-.41,.51-.74,1.13-.95,1.84-.23,.74-.34,1.54-.34,2.37v16.41c0,.69-.25,1.3-.73,1.78-.96,.96-2.61,.95-3.56,0-.48-.48-.73-1.09-.73-1.78v-16.46c0-.83-.12-1.61-.35-2.33-.23-.71-.56-1.32-.98-1.84-.41-.5-.93-.91-1.54-1.22-1.21-.61-2.96-.6-4.27,.01-.68,.32-1.27,.74-1.74,1.25s-.86,1.14-1.12,1.85c-.27,.72-.41,1.51-.41,2.32v16.41c0,.69-.26,1.32-.77,1.79-1.01,.96-2.6,.92-3.53-.01-.48-.48-.73-1.09-.73-1.78v-16.41c0-1.49,.26-2.91,.78-4.22,.52-1.32,1.26-2.48,2.19-3.46,.93-.98,2.05-1.77,3.32-2.35,1.28-.59,2.7-.88,4.2-.88,1.83,0,3.45,.37,4.82,1.1,1.02,.55,1.92,1.24,2.69,2.06,.8-.8,1.69-1.48,2.66-2.03,1.33-.75,2.92-1.13,4.73-1.13,1.5,0,2.92,.3,4.21,.88,1.28,.58,2.41,1.37,3.34,2.35,.93,.98,1.67,2.14,2.19,3.46,.52,1.31,.78,2.73,.78,4.22v16.41c0,.69-.26,1.32-.77,1.79-.49,.47-1.09,.72-1.75,.72Zm-8.02-26.63c1.08,0,2.09,.21,3,.63,.89,.41,1.67,.97,2.31,1.66,.64,.69,1.14,1.52,1.49,2.45,.35,.93,.52,1.92,.52,2.95v16.41c0,.21,.06,.36,.2,.5,.27,.27,.66,.3,.99-.01,.14-.14,.2-.28,.2-.48v-16.41c0-1.26-.22-2.45-.65-3.55-.43-1.1-1.05-2.06-1.82-2.87-.77-.81-1.71-1.47-2.78-1.95-1.06-.48-2.23-.72-3.47-.72-1.49,0-2.79,.3-3.84,.89-1.09,.62-2.07,1.43-2.9,2.41l-.74,.88-.68-.92c-.73-.98-1.67-1.78-2.78-2.38-1.1-.59-2.43-.88-3.96-.88-1.24,0-2.4,.24-3.44,.72-1.06,.48-1.99,1.14-2.76,1.95-.77,.81-1.38,1.78-1.82,2.87-.43,1.1-.65,2.29-.65,3.55v16.41c0,.21,.06,.36,.2,.5,.26,.26,.66,.3,.99-.01,.14-.14,.2-.28,.2-.48v-16.41c0-1.03,.18-2.03,.52-2.95,.35-.94,.85-1.77,1.5-2.45,.64-.69,1.41-1.24,2.31-1.66,1.82-.84,4.15-.84,5.85,.01,.85,.42,1.56,.99,2.13,1.69,.56,.69,1,1.5,1.3,2.42,.3,.91,.45,1.88,.45,2.9v16.46c0,.21,.06,.36,.2,.5,.28,.28,.72,.28,1,0,.14-.14,.2-.29,.2-.5v-16.41c0-1.01,.14-1.99,.42-2.9,.29-.94,.72-1.77,1.28-2.46,.57-.7,1.29-1.27,2.13-1.69,.86-.43,1.83-.65,2.9-.65Z"/></g><g><path class="cls-2" d="M313.87,148.42c-.57,0-1.06-.2-1.46-.6-.4-.39-.6-.89-.6-1.46v-16.41c0-.87-.15-1.7-.44-2.48-.29-.77-.7-1.44-1.22-2-.52-.56-1.15-1.01-1.88-1.35-1.42-.66-3.35-.68-4.71,0-.67,.34-1.24,.78-1.69,1.34-.45,.56-.8,1.23-1.04,2-.24,.78-.36,1.62-.36,2.5v16.41c0,.57-.2,1.06-.6,1.46-.79,.79-2.13,.79-2.92,0-.4-.39-.6-.89-.6-1.46v-16.46c0-.87-.13-1.71-.38-2.48-.25-.76-.61-1.43-1.06-1.99-.45-.55-1.02-1-1.69-1.34-1.34-.67-3.22-.66-4.67,0-.73,.34-1.36,.8-1.88,1.35-.52,.56-.93,1.23-1.21,2-.29,.77-.44,1.61-.44,2.48v16.41c0,.58-.21,1.07-.63,1.47-.84,.8-2.12,.76-2.89,0-.4-.4-.6-.89-.6-1.46v-16.41c0-1.43,.25-2.79,.75-4.05,.5-1.26,1.2-2.37,2.1-3.31,.89-.94,1.96-1.69,3.18-2.25,1.22-.56,2.57-.84,4.01-.84,1.75,0,3.3,.35,4.6,1.04,1.12,.6,2.09,1.38,2.89,2.33,.85-.92,1.82-1.69,2.9-2.3,1.26-.71,2.78-1.07,4.51-1.07,1.44,0,2.79,.28,4.03,.84,1.23,.56,2.31,1.32,3.2,2.25,.89,.94,1.6,2.05,2.1,3.31,.5,1.26,.75,2.62,.75,4.05v16.41c0,.58-.21,1.07-.62,1.47-.41,.39-.89,.59-1.43,.59Zm-8.02-25.72c1.02,0,1.96,.2,2.81,.59,.84,.39,1.57,.91,2.17,1.56,.6,.65,1.07,1.42,1.4,2.3,.33,.88,.49,1.82,.49,2.8v16.41c0,.33,.1,.59,.33,.82,.43,.43,1.13,.47,1.62,0,.23-.23,.34-.48,.34-.81v-16.41c0-1.31-.23-2.57-.69-3.72-.46-1.15-1.1-2.17-1.91-3.02-.81-.85-1.8-1.54-2.92-2.05-1.12-.5-2.35-.76-3.65-.76-1.57,0-2.94,.32-4.06,.95-1.14,.65-2.16,1.49-3.02,2.51l-.37,.44-.34-.46c-.77-1.04-1.76-1.88-2.93-2.51-1.17-.62-2.57-.94-4.17-.94-1.3,0-2.53,.26-3.63,.76-1.11,.51-2.09,1.2-2.9,2.05-.81,.85-1.46,1.87-1.91,3.02-.45,1.15-.69,2.4-.69,3.72v16.41c0,.33,.11,.59,.33,.82,.43,.43,1.13,.47,1.62,0,.24-.23,.35-.48,.35-.81v-16.41c0-.98,.17-1.92,.49-2.8,.33-.88,.8-1.66,1.4-2.3,.6-.64,1.33-1.17,2.17-1.56,1.69-.79,3.87-.79,5.46,0,.79,.39,1.45,.92,1.98,1.57,.52,.65,.93,1.41,1.22,2.28,.28,.86,.42,1.79,.42,2.76v16.46c0,.33,.1,.59,.33,.82,.45,.45,1.19,.45,1.64,0,.22-.22,.33-.49,.33-.82v-16.41c0-.97,.13-1.9,.4-2.77,.27-.88,.67-1.66,1.2-2.31,.53-.65,1.2-1.18,1.98-1.58,.79-.4,1.7-.6,2.69-.6Z"/><path class="cls-2" d="M282.95,149.33c-.75,0-1.5-.29-2.08-.87-.56-.56-.86-1.29-.86-2.1v-16.41c0-1.55,.27-3.02,.81-4.38,.54-1.36,1.31-2.58,2.28-3.6,.97-1.02,2.13-1.85,3.46-2.45,1.35-.61,2.82-.93,4.39-.93,1.9,0,3.6,.39,5.03,1.15,.93,.5,1.76,1.11,2.48,1.82,.74-.69,1.56-1.29,2.43-1.78,1.4-.79,3.06-1.19,4.95-1.19,1.56,0,3.04,.31,4.4,.92,1.34,.61,2.51,1.43,3.49,2.46,.98,1.02,1.74,2.24,2.28,3.6,.54,1.36,.81,2.84,.81,4.38v16.41c0,.82-.31,1.56-.9,2.12-1.19,1.13-3.06,1.08-4.16-.02-.56-.56-.86-1.29-.86-2.1v-16.41c0-.76-.13-1.49-.38-2.16-.25-.66-.59-1.23-1.03-1.7-.44-.47-.98-.86-1.6-1.15-1.19-.55-2.84-.56-3.92-.02-.55,.28-1.02,.65-1.39,1.1-.38,.46-.67,1.03-.87,1.69-.21,.7-.32,1.45-.32,2.24v16.41c0,.81-.3,1.54-.86,2.1-1.14,1.14-3.07,1.14-4.2,0-.56-.56-.86-1.29-.86-2.1v-16.46c0-.78-.11-1.52-.33-2.19-.21-.65-.52-1.22-.9-1.69-.37-.45-.83-.82-1.39-1.1-1.09-.54-2.69-.54-3.88,.02-.62,.29-1.16,.68-1.6,1.15-.44,.47-.78,1.04-1.03,1.7-.25,.67-.38,1.4-.38,2.16v16.41c0,.82-.31,1.56-.91,2.12-.59,.56-1.34,.84-2.08,.84Zm8-27.54c1.09,0,2.17,.23,3.1,.69,.9,.45,1.67,1.06,2.28,1.81,.6,.73,1.06,1.6,1.38,2.57,.31,.95,.47,1.97,.47,3.04v16.46c0,.11,.02,.13,.06,.17,.07,.07,.14,.07,.18,.07h0s.12,0,.18-.07c.05-.05,.07-.08,.07-.18v-16.41c0-1.06,.15-2.08,.44-3.03,.31-1,.77-1.88,1.37-2.62,.61-.75,1.38-1.36,2.28-1.81,1.85-.93,4.37-.91,6.29-.02,.94,.44,1.77,1.03,2.45,1.76,.68,.73,1.22,1.61,1.59,2.6,.37,.99,.55,2.03,.55,3.11v16.41c0,.11,.02,.13,.06,.17,.08,.08,.22,.12,.36-.02,.05-.05,.06-.07,.06-.16v-16.41c0-1.2-.21-2.34-.62-3.38-.41-1.04-.99-1.96-1.72-2.73-.73-.77-1.62-1.39-2.64-1.85-1-.45-2.1-.68-3.28-.68-1.41,0-2.63,.28-3.61,.84-1.05,.59-1.98,1.37-2.77,2.31l-1.11,1.31-1.03-1.38c-.69-.93-1.58-1.69-2.63-2.25-1.03-.55-2.29-.83-3.75-.83-1.17,0-2.27,.23-3.25,.68-1,.46-1.88,1.08-2.62,1.85-.73,.77-1.31,1.68-1.73,2.73-.41,1.04-.62,2.18-.62,3.38v16.41c0,.11,.02,.13,.07,.18,.07,.07,.21,.11,.35-.02,.05-.05,.06-.07,.06-.16v-16.41c0-1.09,.19-2.14,.55-3.11,.37-.99,.9-1.87,1.59-2.6,.68-.73,1.51-1.33,2.45-1.76,.97-.45,2.07-.68,3.15-.68Z"/></g></g><g><g><path class="cls-2" d="M328.47,121.72c0-.45,.15-.83,.46-1.14,.31-.31,.69-.46,1.14-.46h16.92c.45,0,.83,.16,1.14,.46s.46,.69,.46,1.14c0,.42-.15,.8-.46,1.12-.31,.32-.69,.49-1.14,.49h-15.32v9.54h8.99c.45,0,.83,.15,1.14,.46,.31,.31,.46,.69,.46,1.14,0,.42-.15,.79-.46,1.12-.31,.32-.69,.49-1.14,.49h-8.99v8.69h15.32c.45,0,.83,.16,1.14,.46,.31,.31,.46,.69,.46,1.14,0,.42-.15,.8-.46,1.12-.31,.32-.69,.49-1.14,.49h-16.92c-.42,0-.79-.15-1.12-.46-.32-.31-.49-.69-.49-1.14v-24.64Z"/><path class="cls-2" d="M346.99,148.88h-16.92c-.65,0-1.26-.25-1.75-.72-.5-.48-.77-1.1-.77-1.8v-24.64c0-.69,.25-1.3,.73-1.78,.48-.48,1.09-.73,1.78-.73h16.92c.69,0,1.3,.25,1.78,.73s.73,1.09,.73,1.78-.25,1.26-.72,1.75c-.48,.5-1.1,.76-1.79,.76h-14.41v7.72h8.08c.69,0,1.3,.25,1.78,.73s.73,1.09,.73,1.78c0,.65-.25,1.26-.72,1.75-.48,.5-1.1,.77-1.79,.77h-8.08v6.88h14.41c.69,0,1.3,.25,1.78,.73,.48,.48,.73,1.09,.73,1.78s-.25,1.26-.72,1.75c-.48,.5-1.1,.76-1.79,.76Zm-16.92-27.85c-.21,0-.36,.06-.5,.2-.14,.14-.2,.29-.2,.5v24.64c0,.2,.06,.35,.2,.48,.15,.15,.3,.21,.49,.21h16.92c.2,0,.35-.06,.48-.2,.15-.16,.21-.3,.21-.49,0-.21-.06-.36-.2-.5-.14-.14-.29-.2-.5-.2h-16.23v-10.51h9.9c.2,0,.35-.06,.48-.2,.15-.15,.21-.3,.21-.49,0-.21-.06-.36-.2-.5s-.29-.2-.5-.2h-9.9v-11.35h16.23c.2,0,.35-.06,.48-.2,.15-.15,.21-.3,.21-.49,0-.21-.06-.36-.2-.5s-.29-.2-.5-.2h-16.92Z"/></g><g><path class="cls-2" d="M346.99,148.42h-16.92c-.54,0-1.02-.2-1.43-.59-.41-.4-.62-.89-.62-1.47v-24.64c0-.57,.2-1.06,.6-1.46,.4-.4,.89-.6,1.46-.6h16.92c.57,0,1.06,.2,1.46,.6,.4,.4,.6,.89,.6,1.46s-.2,1.02-.59,1.43c-.4,.41-.89,.62-1.47,.62h-14.86v8.63h8.54c.57,0,1.06,.2,1.46,.6,.4,.4,.6,.89,.6,1.46,0,.54-.2,1.02-.59,1.43-.4,.41-.89,.62-1.47,.62h-8.54v7.79h14.86c.57,0,1.06,.2,1.46,.6,.4,.4,.6,.89,.6,1.46s-.2,1.02-.59,1.43c-.4,.41-.89,.62-1.47,.62Zm-16.92-27.85c-.33,0-.59,.11-.82,.33-.22,.22-.33,.49-.33,.82v24.64c0,.33,.11,.59,.34,.81,.24,.23,.5,.34,.8,.34h16.92c.33,0,.59-.11,.81-.34,.23-.24,.34-.5,.34-.8,0-.33-.11-.59-.33-.82-.22-.22-.49-.33-.82-.33h-15.77v-9.6h9.44c.33,0,.59-.11,.81-.34,.23-.24,.34-.5,.34-.8,0-.33-.11-.6-.33-.82-.22-.22-.49-.33-.82-.33h-9.44v-10.45h15.77c.33,0,.59-.11,.81-.34,.23-.24,.34-.5,.34-.8,0-.33-.11-.59-.33-.82s-.49-.33-.82-.33h-16.92Z"/><path class="cls-2" d="M346.99,149.33h-16.92c-.77,0-1.48-.29-2.06-.84-.59-.57-.91-1.3-.91-2.12v-24.64c0-.81,.3-1.53,.86-2.1,.57-.57,1.3-.87,2.1-.87h16.92c.81,0,1.53,.3,2.1,.86,.57,.57,.87,1.3,.87,2.1s-.29,1.49-.84,2.06c-.57,.59-1.3,.9-2.12,.9h-13.96v6.81h7.63c.81,0,1.53,.3,2.1,.86,.57,.57,.87,1.3,.87,2.1s-.29,1.48-.84,2.06c-.57,.59-1.3,.91-2.12,.91h-7.63v5.97h13.96c.81,0,1.54,.3,2.1,.86,.57,.57,.87,1.3,.87,2.1s-.29,1.48-.84,2.06c-.57,.59-1.3,.91-2.12,.91Zm-16.92-27.85c-.1,0-.14,.02-.18,.07s-.06,.07-.06,.18v24.64c0,.09,.01,.1,.07,.16,.09,.08,.13,.08,.18,.08h16.92c.09,0,.11-.01,.16-.07,.09-.09,.09-.14,.09-.18,0-.1-.02-.13-.07-.18-.04-.04-.07-.06-.18-.06h-16.68v-11.42h10.35c.08,0,.1,0,.16-.07,.08-.09,.08-.13,.08-.18,0-.1-.02-.13-.07-.18-.04-.04-.07-.06-.18-.06h-10.35v-12.26h16.68c.09,0,.11-.01,.16-.07,.09-.09,.09-.13,.09-.18,0-.1-.02-.13-.07-.18-.04-.04-.07-.07-.18-.07h-16.92Z"/></g></g><g><g><path class="cls-2" d="M362.31,129.95c0-1.38,.27-2.67,.8-3.88,.53-1.21,1.25-2.26,2.15-3.16,.9-.9,1.96-1.62,3.19-2.15,1.22-.53,2.52-.8,3.9-.8s2.68,.27,3.9,.8c1.22,.53,2.29,1.25,3.21,2.15s1.64,1.96,2.17,3.16c.53,1.21,.8,2.5,.8,3.88v16.41c0,.45-.16,.83-.46,1.14-.31,.31-.69,.46-1.14,.46-.42,0-.79-.15-1.12-.46s-.49-.69-.49-1.14v-16.41c0-.93-.18-1.81-.55-2.64-.37-.83-.86-1.55-1.48-2.15-.62-.6-1.35-1.09-2.19-1.46-.84-.37-1.73-.55-2.66-.55s-1.85,.18-2.68,.55c-.83,.37-1.56,.85-2.17,1.46-.62,.61-1.1,1.32-1.46,2.15-.35,.83-.53,1.71-.53,2.64v16.41c0,.45-.16,.83-.46,1.14s-.69,.46-1.14,.46c-.42,0-.8-.15-1.12-.46-.32-.31-.49-.69-.49-1.14v-16.41Z"/><path class="cls-2" d="M380.83,148.88c-.65,0-1.26-.25-1.75-.72-.5-.48-.77-1.1-.77-1.8v-16.41c0-.8-.16-1.56-.47-2.27-.32-.72-.75-1.35-1.28-1.87-.53-.52-1.18-.95-1.92-1.27-1.47-.64-3.21-.62-4.61,0-.73,.32-1.37,.75-1.91,1.27-.53,.52-.95,1.14-1.25,1.86-.3,.71-.46,1.48-.46,2.28v16.41c0,.69-.25,1.3-.73,1.78-.93,.93-2.52,.97-3.53,.01-.5-.48-.77-1.1-.77-1.79v-16.41c0-1.5,.3-2.93,.88-4.25,.58-1.31,1.36-2.46,2.34-3.44,.98-.98,2.14-1.76,3.46-2.34,2.68-1.16,5.86-1.16,8.53,0,1.32,.58,2.49,1.36,3.48,2.34,.99,.98,1.79,2.14,2.37,3.44,.58,1.32,.88,2.75,.88,4.25v16.41c0,.69-.25,1.3-.73,1.78-.48,.48-1.1,.73-1.78,.73Zm-8.48-26.63c1.05,0,2.06,.21,3.02,.62,.94,.41,1.77,.96,2.47,1.64,.7,.68,1.26,1.5,1.67,2.43,.41,.95,.63,1.96,.63,3v16.41c0,.2,.06,.35,.2,.48,.33,.31,.72,.28,.99,.01,.14-.14,.2-.29,.2-.5v-16.41c0-1.24-.24-2.43-.72-3.52-.49-1.1-1.15-2.07-1.98-2.89-.83-.82-1.81-1.48-2.93-1.97-2.21-.96-4.87-.96-7.08,0-1.11,.49-2.09,1.15-2.91,1.96-.82,.82-1.48,1.79-1.96,2.89-.48,1.09-.72,2.27-.72,3.52v16.41c0,.2,.06,.35,.2,.48,.33,.31,.72,.28,.99,.01,.14-.14,.2-.29,.2-.5v-16.41c0-1.05,.2-2.06,.6-2.99,.4-.94,.95-1.76,1.66-2.45,.69-.68,1.51-1.23,2.44-1.64,.94-.42,1.97-.63,3.05-.63Z"/></g><g><path class="cls-2" d="M380.83,148.42c-.54,0-1.02-.2-1.43-.59-.41-.4-.62-.89-.62-1.47v-16.41c0-.86-.17-1.69-.51-2.46-.34-.77-.8-1.45-1.38-2.01-.58-.56-1.27-1.02-2.06-1.36-1.59-.69-3.46-.67-4.97,0-.78,.34-1.46,.8-2.04,1.36-.57,.56-1.03,1.24-1.36,2.01-.33,.77-.49,1.6-.49,2.46v16.41c0,.57-.2,1.06-.6,1.46-.77,.77-2.05,.81-2.89,0-.41-.4-.62-.89-.62-1.47v-16.41c0-1.44,.28-2.81,.84-4.07,.55-1.26,1.31-2.37,2.25-3.3,.93-.94,2.05-1.69,3.32-2.25,2.55-1.11,5.62-1.11,8.17,0,1.27,.56,2.4,1.31,3.34,2.25,.95,.94,1.72,2.05,2.27,3.3,.56,1.26,.84,2.63,.84,4.07v16.41c0,.57-.2,1.06-.6,1.46-.4,.4-.89,.6-1.46,.6Zm-8.48-25.72c.99,0,1.94,.2,2.84,.59,.89,.39,1.67,.91,2.33,1.55,.66,.64,1.19,1.42,1.57,2.29,.39,.89,.59,1.84,.59,2.82v16.41c0,.33,.11,.59,.34,.81,.49,.47,1.19,.44,1.62,0,.22-.22,.33-.49,.33-.82v-16.41c0-1.31-.26-2.55-.76-3.7-.51-1.15-1.21-2.17-2.08-3.02-.87-.86-1.9-1.55-3.07-2.06-2.32-1.01-5.12-1.01-7.44,0-1.17,.51-2.19,1.2-3.05,2.06-.86,.86-1.55,1.87-2.06,3.03-.51,1.14-.76,2.39-.76,3.7v16.41c0,.33,.11,.59,.34,.81,.49,.47,1.19,.44,1.62,0,.22-.22,.33-.49,.33-.82v-16.41c0-.99,.19-1.94,.56-2.82,.37-.88,.9-1.65,1.56-2.3,.65-.64,1.43-1.16,2.31-1.55,.89-.39,1.85-.59,2.86-.59Z"/><path class="cls-2" d="M363.93,149.34c-.74,0-1.49-.28-2.08-.85-.59-.56-.91-1.3-.91-2.12v-16.41c0-1.56,.31-3.06,.92-4.43,.6-1.36,1.42-2.56,2.43-3.58,1.02-1.02,2.23-1.83,3.6-2.44,2.79-1.21,6.11-1.22,8.9,0,1.37,.6,2.59,1.42,3.62,2.43,1.03,1.02,1.86,2.22,2.46,3.58,.61,1.38,.92,2.87,.92,4.43v16.41c0,.81-.3,1.54-.86,2.1-1.1,1.1-2.98,1.15-4.16,.02-.59-.57-.91-1.3-.91-2.12v-16.41c0-.73-.15-1.44-.43-2.09-.29-.66-.69-1.25-1.18-1.73-.5-.48-1.1-.88-1.78-1.18-1.34-.58-2.93-.58-4.25,0-.68,.3-1.27,.7-1.77,1.18-.49,.48-.88,1.05-1.15,1.71-.28,.65-.42,1.36-.42,2.11v16.41c0,.81-.3,1.54-.87,2.1-.58,.58-1.33,.87-2.08,.87Zm8.42-27.54c1.11,0,2.19,.22,3.2,.66,.99,.43,1.87,1.01,2.6,1.73,.74,.73,1.34,1.59,1.77,2.58,.44,1,.67,2.08,.67,3.19v16.41c0,.09,.01,.11,.07,.16,.14,.13,.27,.1,.35,.02,.04-.04,.06-.08,.06-.18v-16.41c0-1.18-.23-2.3-.69-3.33-.46-1.05-1.1-1.97-1.88-2.74-.79-.78-1.73-1.41-2.8-1.88-2.1-.92-4.61-.92-6.72,0-1.06,.46-1.99,1.09-2.77,1.87-.78,.78-1.41,1.7-1.87,2.75-.45,1.03-.69,2.15-.69,3.33v16.41c0,.09,.01,.1,.07,.16,.14,.13,.28,.1,.35,.02,.05-.05,.07-.08,.07-.18v-16.41c0-1.11,.21-2.18,.64-3.17,.42-.99,1.01-1.86,1.76-2.59,.73-.72,1.6-1.3,2.58-1.73,1-.44,2.09-.67,3.23-.67Z"/></g></g><g><g><path class="cls-2" d="M394.46,123.33c-.45,0-.83-.15-1.14-.46s-.46-.69-.46-1.14c0-.42,.15-.79,.46-1.12s.69-.49,1.14-.49h16.92c.45,0,.83,.16,1.14,.46,.31,.31,.46,.69,.46,1.14,0,.42-.16,.8-.46,1.12-.31,.32-.69,.49-1.14,.49h-6.88v23.04c0,.45-.15,.83-.46,1.14s-.69,.46-1.14,.46c-.42,0-.79-.15-1.12-.46-.32-.31-.49-.69-.49-1.14v-23.04h-6.84Z"/><path class="cls-2" d="M402.9,148.88c-.65,0-1.26-.25-1.75-.72-.5-.48-.77-1.1-.77-1.79v-22.13h-5.93c-.69,0-1.3-.25-1.78-.73s-.73-1.09-.73-1.78,.25-1.26,.72-1.75c.48-.5,1.1-.77,1.79-.77h16.92c.69,0,1.3,.25,1.78,.73,.48,.48,.73,1.09,.73,1.78s-.25,1.26-.72,1.75c-.48,.5-1.1,.77-1.79,.77h-5.97v22.13c0,.69-.25,1.3-.73,1.78-.48,.48-1.09,.73-1.78,.73Zm-8.44-27.85c-.2,0-.35,.06-.48,.21-.15,.16-.21,.3-.21,.49,0,.21,.06,.36,.2,.5s.29,.2,.5,.2h7.74v23.95c0,.2,.06,.35,.21,.48,.33,.31,.73,.28,.99,.01,.14-.14,.2-.29,.2-.5v-23.95h7.79c.2,0,.34-.06,.48-.21,.15-.15,.21-.3,.21-.49,0-.21-.06-.36-.2-.5-.14-.14-.29-.2-.5-.2h-16.92Z"/></g><g><path class="cls-2" d="M402.9,148.42c-.54,0-1.02-.2-1.43-.59-.41-.4-.63-.89-.63-1.47v-22.59h-6.38c-.57,0-1.06-.2-1.46-.6s-.6-.89-.6-1.46c0-.54,.2-1.02,.59-1.43,.4-.41,.89-.63,1.47-.63h16.92c.57,0,1.06,.2,1.46,.6,.4,.4,.6,.89,.6,1.46s-.2,1.02-.59,1.43c-.4,.41-.89,.62-1.47,.62h-6.42v22.59c0,.57-.2,1.06-.6,1.46-.4,.4-.89,.6-1.46,.6Zm-8.44-27.85c-.33,0-.59,.11-.81,.35-.23,.24-.34,.5-.34,.8,0,.33,.11,.6,.33,.82,.23,.23,.49,.33,.82,.33h7.29v23.49c0,.33,.11,.59,.35,.81,.49,.48,1.19,.44,1.62,0,.23-.23,.33-.48,.33-.82v-23.49h7.33c.33,0,.59-.11,.81-.34,.23-.24,.34-.5,.34-.8,0-.33-.11-.59-.33-.82-.22-.22-.49-.33-.82-.33h-16.92Z"/><path class="cls-2" d="M402.9,149.33c-.77,0-1.48-.29-2.06-.84-.59-.57-.91-1.3-.91-2.12v-21.68h-5.47c-.81,0-1.54-.3-2.1-.86-.56-.57-.86-1.29-.86-2.1s.29-1.48,.84-2.06c.57-.59,1.3-.91,2.12-.91h16.92c.81,0,1.53,.3,2.1,.86,.57,.57,.87,1.3,.87,2.1s-.29,1.48-.84,2.06c-.57,.59-1.3,.91-2.12,.91h-5.52v21.68c0,.81-.3,1.54-.86,2.1-.57,.56-1.29,.86-2.1,.86Zm-8.44-27.85c-.08,0-.1,.01-.15,.06-.09,.09-.09,.14-.09,.18,0,.1,.02,.14,.07,.18,.04,.04,.07,.06,.18,.06h8.2v24.4c0,.08,.01,.1,.06,.15,.18,.17,.32,.06,.36,.02,.04-.04,.06-.07,.06-.18v-24.4h8.24c.09,0,.11-.01,.16-.07,.08-.09,.08-.14,.08-.18,0-.1-.02-.13-.07-.18-.04-.04-.07-.06-.17-.06h-16.92Z"/></g></g></g></svg>